# AST/ASF file generated using VICON BodyLanguage
# -----------------------------------------------
:version 1.10
:name VICON
:units
  mass 1.0
  length 0.45
  angle deg
:documentation
   .ast/.asf automatically generated from VICON data using
   VICON BodyBuilder and BodyLanguage model FoxedUp or BRILLIANT.MOD
:root
   order TX TY TZ RX RY RZ
   axis XYZ
   position 0 0 0  
   orientation 0 0 0 
:bonedata
  begin
     id 1 
     name lhipjoint
     direction 0.627457 -0.725269 0.283342 
     length 2.53237 
     axis 0 0 0  XYZ
  end
  begin
     id 2 
     name lfemur
     direction 0.34202 -0.939693 0  
     length 7.32496  
     axis 0 0 20  XYZ
    dof rx ry rz
    limits (-160.0 20.0)
           (-70.0 70.0)
           (-60.0 70.0)
  end
  begin
     id 3 
     name ltibia
     direction 0.34202 -0.939693 0   
     length 7.69674   
     axis 0 0 20   XYZ
    dof rx
    limits (-10.0 170.0)
  end
  begin
     id 4 
     name lfoot
     direction 0.127289 -0.349722 0.928166   
     length 1.8612   
     axis -90 7.62852e-016 20   XYZ
    dof rx rz
    limits (-45.0 90.0)
           (-70.0 20.0)
  end
  begin
     id 5 
     name ltoes
     direction 1.53561e-011 -4.21864e-011 1   
     length 0.925608   
     axis -90 7.62852e-016 20   XYZ
    dof rx
    limits (-90.0 20.0)
  end
  begin
     id 6 
     name rhipjoint
     direction -0.609094 -0.738725 0.288599   
     length 2.48624  
     axis 0 0 0  XYZ 
  end
  begin
     id 7 
     name rfemur
     direction -0.34202 -0.939693 0   
     length 7.44259   
     axis 0 0 -20   XYZ
    dof rx ry rz
    limits (-160.0 20.0)
           (-70.0 70.0)
           (-70.0 60.0)
  end
  begin
     id 8 
     name rtibia
     direction -0.34202 -0.939693 0   
     length 7.7781   
     axis 0 0 -20   XYZ
    dof rx
    limits (-10.0 170.0)
 end
 begin
     id 9 
     name rfoot
     direction -0.107015 -0.294021 0.949789   
     length 2.14741  
     axis -90 -7.62852e-016 -20   XYZ
    dof rx rz
    limits (-45.0 90.0)
           (-20.0 70.0)
  end
  begin
     id 10 
     name rtoes
     direction -1.53497e-011 -4.21924e-011 1   
     length 1.0706   
     axis -90 -7.62852e-016 -20   XYZ
    dof rx
    limits (-90.0 20.0)
  end
  begin
     id 11 
     name lowerback
     direction -0.0142066 0.998112 -0.0597545   
     length 1.86627   
     axis 0 0 0   XYZ
    dof rx ry rz
    limits (-20.0 45.0)
           (-30.0 30.0)
           (-30.0 30.0)
  end
  begin
     id 12 
     name upperback
     direction 0.00547294 0.999744 0.0219437   
     length 1.86272   
     axis 0 0 0   XYZ
    dof rx ry rz
    limits (-20.0 45.0)
           (-30.0 30.0)
           (-30.0 30.0)
  end
  begin
     id 13 
     name thorax
     direction 0.0116162 0.998704 0.0495538   
     length 1.8703   
     axis 0 0 0   XYZ
    dof rx ry rz
    limits (-20.0 45.0)
           (-30.0 30.0)
           (-30.0 30.0)
  end
  begin
     id 14 
     name lowerneck
     direction -0.0106574 0.998739 0.0490586   
     length 1.8074   
     axis 0 0 0   XYZ
    dof rx ry rz
    limits (-20.0 45.0)
           (-30.0 30.0)
           (-30.0 30.0)
  end
  begin
     id 15 
     name upperneck
     direction 0.030527 0.976587 -0.212944   
     length 1.80681   
     axis 0 0 0   XYZ
    dof rx ry rz
    limits (-20.0 45.0)
           (-30.0 30.0)
           (-30.0 30.0)
  end
  begin
     id 16
     name head
     direction 0.00869225 0.997035 -0.0764531  
     length 1.8313  
     axis 0 0 0   XYZ
    dof rx ry rz
    limits (-20.0 45.0)
           (-30.0 30.0)
           (-30.0 30.0)
  end
  begin
     id 17 
     name lclavicle
     direction 0.915958 0.399447 0.0382386  
     length 3.78965  
     axis 0 0 0   XYZ
    dof ry rz
    limits (-20.0 10.0)
           (0.0 20.0)
  end
  begin
     id 18 
     name lhumerus
     direction 1 -4.48967e-011 3.19303e-027   
     length 4.78095   
     axis -180 -30 -90   XYZ
    dof rx ry rz
    limits (-60.0 90.0)
           (-90.0 90.0)
           (-90.0 90.0)
  end
  begin
     id 19
     name lradius
     direction 1 -4.48967e-011 -3.77974e-027   
     length 3.58615   
     axis -180 -30 -90   XYZ
    dof rx
    limits (-10.0 170.0)
  end
  begin
     id 20
     name lwrist
     direction 1 -4.48927e-011 1.2807e-027   
     length 1.79307   
     axis 1.91374e-015 90 90   XYZ
    dof ry
    limits (-180.0 0.0)
 end
  begin
     id 21 
     name lhand
     direction 1 -4.49036e-011 2.5614e-027   
     length 0.659812   
     axis -1.63439e-015 90 90   XYZ
    dof rx rz
    limits (-90.0 90.0)
           (-45.0 45.0)
  end
  begin
     id 22 
     name lfingers
     direction 1 -4.49052e-011 5.1228e-027   
     length 0.531957   
     axis -3.26879e-015 90 90   XYZ
    dof rx
    limits (0.0 90.0)
  end
  begin
     id 23
     name lthumb
     direction 0.707107 -6.35012e-011 0.707107   
     length 0.763787   
     axis -90 45 2.85299e-015   XYZ
    dof rx rz
    limits (-45.0 45.0)
           (-45.0 45.0)
  end
  begin
     id 24 
     name rclavicle
     direction -0.895351 0.435135 0.0948887   
     length 3.70497  
     axis 0 0 0   XYZ 
    dof ry rz
    limits (-10.0 20.0)
           (-20.0 0.0)
  end
  begin
     id 25 
     name rhumerus
     direction -1 -4.48971e-011 2.38946e-027  
     length 4.48913   
     axis -180 30 90   XYZ
    dof rx ry rz
    limits (-90.0 60.0)
           (-90.0 90.0)
           (-90.0 90.0)
  end
  begin
     id 26 
     name rradius
     direction -1 -4.4895e-011 4.38668e-027   
     length 3.7051   
     axis -180 30 90   XYZ
    dof rx
    limits (-10.0 170.0)
  end
  begin
     id 27 
     name rwrist
     direction -1 -4.49007e-011 1.2807e-027   
     length 1.85255   
     axis 1.91374e-015 -90 -90   XYZ
    dof ry
    limits (-180.0 0.0)
  end
  begin
     id 28
     name rhand
     direction -1 -4.48851e-011 2.5614e-027   
     length 0.449136   
     axis -1.63439e-015 -90 -90   XYZ
    dof rx rz
    limits (-90.0 90.0)
           (-45.0 45.0)
  end
  begin
     id 29
     name rfingers
     direction -1 -4.49128e-011 5.1228e-027   
     length 0.362105   
     axis -3.26879e-015 -90 -90   XYZ
    dof rx
    limits (0.0 90.0)
  end
  begin
     id 30
     name rthumb
     direction -0.707107 -6.34851e-011 0.707107   
     length 0.519912   
     axis -90 -45 -2.85299e-015   XYZ
    dof rx rz
    limits (-45.0 45.0)
           (-45.0 45.0)
  end
:hierarchy
  begin
    root lhipjoint rhipjoint lowerback
    lhipjoint lfemur
    lfemur ltibia
    ltibia lfoot
    lfoot ltoes
    rhipjoint rfemur
    rfemur rtibia
    rtibia rfoot
    rfoot rtoes
    lowerback upperback
    upperback thorax
    thorax lowerneck lclavicle rclavicle
    lowerneck upperneck
    upperneck head
    lclavicle lhumerus
    lhumerus lradius
    lradius lwrist
    lwrist lhand lthumb
    lhand lfingers
    rclavicle rhumerus
    rhumerus rradius
    rradius rwrist
    rwrist rhand rthumb
    rhand rfingers
  end

#!OML:ASF I:\Actors\actors\Patient Classification 2\Patient 1\Session 1\actor1.ASF
:FULLY-SPECIFIED
:DEGREES
1
root -0.588105 18.6696 5.67077 1.13845 -4.52323 -2.73085
lowerback 1.03642 1.19204 1.39333
upperback -2.23634 1.63538 0.398734
thorax -2.84857 0.789543 -0.427775
lowerneck -11.5539 -1.93872 -1.93595
upperneck 29.2198 -3.36113 3.34706
head 11.4968 -1.33304 1.1241
rclavicle -1.0312e-015 2.38542e-015
rhumerus -49.6598 -8.85837 -83.2275
rradius 43.0062
rwrist 21.7233
rhand -6.72869 -36.8052
rfingers 7.12502
rthumb 19.1317 -65.8842
lclavicle -1.0312e-015 2.38542e-015
lhumerus -43.0997 -1.3553 90.7247
lradius 37.2154
lwrist -5.10569
lhand -10.9413 -28.7832
lfingers 7.12502
lthumb 15.077 0.647753
rfemur 0 0 0
rtibia 0
rfoot 0 0
rtoes 0
lfemur -2.73074 -6.83617 -12.4074
ltibia 21.6658
lfoot -25.346 17.5546
ltoes -54.1561
2
root -0.586987 18.6694 5.67079 1.13298 -4.52866 -2.7566
lowerback 1.06104 1.18113 1.42875
upperback -2.24805 1.62242 0.402624
thorax -2.87393 0.782087 -0.443886
lowerneck -11.5516 -1.939 -1.96805
upperneck 29.2321 -3.36896 3.3946
head 11.5029 -1.33434 1.14627
rclavicle -5.1684e-015 3.77691e-015
rhumerus -49.6792 -8.84254 -83.2479
rradius 42.9986
rwrist 21.6908
rhand -6.61388 -36.8606
rfingers 7.12502
rthumb 19.2421 -65.9286
lclavicle -5.1684e-015 3.77691e-015
lhumerus -43.1249 -1.3254 90.7095
lradius 37.214
lwrist -5.14291
lhand -10.9612 -28.7955
lfingers 7.12502
lthumb 15.0579 0.636849
rfemur 0 0 0
rtibia 0
rfoot 0 0
rtoes 0
lfemur -2.73385 -6.83508 -12.3863
ltibia 21.6975
lfoot -25.3634 17.5654
ltoes -54.143
3
root -0.58683 18.669 5.6702 1.13039 -4.54093 -2.77288
lowerback 1.07736 1.17212 1.43866
upperback -2.2536 1.61117 0.40793
thorax -2.88893 0.776176 -0.444047
lowerneck -11.5217 -1.93824 -1.9488
upperneck 29.2002 -3.36806 3.3818
head 11.4837 -1.33414 1.1383
rclavicle -2.23012e-014 2.18663e-015
rhumerus -49.6829 -8.80655 -83.2722
rradius 42.9904
rwrist 21.6006
rhand -6.22003 -37.0013
rfingers 7.12502
rthumb 19.6208 -66.0312
lclavicle -2.23012e-014 2.18663e-015
lhumerus -43.1314 -1.28231 90.6909
lradius 37.2189
lwrist -5.13967
lhand -10.932 -28.7946
lfingers 7.12502
lthumb 15.086 0.635709
rfemur 0 0 0
rtibia 0
rfoot 0 0
rtoes 0
lfemur -2.73113 -6.82041 -12.3687
ltibia 21.7085
lfoot -25.3697 17.5578
ltoes -54.1575
4
root -0.586733 18.669 5.66968 1.12991 -4.54283 -2.7739
lowerback 1.07599 1.16779 1.42924
upperback -2.25238 1.60529 0.415081
thorax -2.88746 0.773556 -0.431195
lowerneck -11.5139 -1.94355 -1.93802
upperneck 29.1893 -3.37143 3.35934
head 11.4774 -1.33747 1.12767
rclavicle 3.35449e-016 9.74045e-015
rhumerus -49.6747 -8.78204 -83.2689
rradius 42.9894
rwrist 21.5234
rhand -6.13497 -37.0547
rfingers 7.12502
rthumb 19.7026 -66.0763
lclavicle 3.35449e-016 9.74045e-015
lhumerus -43.1593 -1.30494 90.7217
lradius 37.2791
lwrist -5.05702
lhand -10.9079 -28.7645
lfingers 7.12502
lthumb 15.1092 0.664016
rfemur 0 0 0
rtibia 0
rfoot 0 0
rtoes 0
lfemur -2.73102 -6.80498 -12.3647
ltibia 21.7078
lfoot -25.3386 17.5396
ltoes -54.1831
5
root -0.586864 18.6695 5.66965 1.12688 -4.54666 -2.72698
lowerback 1.06893 1.16233 1.3547
upperback -2.25421 1.596 0.415066
thorax -2.88746 0.770599 -0.389076
lowerneck -11.522 -1.93712 -1.93752
upperneck 29.2279 -3.36192 3.35302
head 11.4936 -1.33351 1.12672
rclavicle 4.5472e-015 -1.15295e-014
rhumerus -49.6962 -8.79446 -83.2297
rradius 43.0019
rwrist 21.5896
rhand -6.41364 -36.8538
rfingers 7.12502
rthumb 19.4347 -65.9025
lclavicle 4.5472e-015 -1.15295e-014
lhumerus -43.1916 -1.33129 90.7553
lradius 37.3182
lwrist -5.01236
lhand -10.95 -28.7485
lfingers 7.12502
lthumb 15.0687 0.683086
rfemur 0 0 0
rtibia 0
rfoot 0 0
rtoes 0
lfemur -2.73144 -6.80575 -12.4163
ltibia 21.7042
lfoot -25.3287 17.5345
ltoes -54.1839
6
root -0.586997 18.6696 5.66945 1.11546 -4.54613 -2.70069
lowerback 1.09444 1.15209 1.31503
upperback -2.26487 1.58168 0.405685
thorax -2.91382 0.764013 -0.376741
lowerneck -11.5037 -1.93057 -1.88449
upperneck 29.2392 -3.35333 3.31024
head 11.4922 -1.32926 1.1031
rclavicle 9.74045e-015 -1.98785e-015
rhumerus -49.7433 -8.81707 -83.2127
rradius 43.0261
rwrist 21.696
rhand -6.56874 -36.7829
rfingers 7.12502
rthumb 19.2855 -65.8467
lclavicle 9.74045e-015 -1.98785e-015
lhumerus -43.1886 -1.30369 90.7336
lradius 37.2743
lwrist -5.02405
lhand -10.9962 -28.7806
lfingers 7.12502
lthumb 15.0241 0.654259
rfemur 0 0 0
rtibia 0
rfoot 0 0
rtoes 0
lfemur -2.72157 -6.80587 -12.4451
ltibia 21.6977
lfoot -25.3327 17.5274
ltoes -54.1921
7
root -0.586013 18.6689 5.6693 1.09829 -4.53524 -2.72891
lowerback 1.12319 1.14825 1.3671
upperback -2.26116 1.57833 0.403313
thorax -2.92485 0.761058 -0.408777
lowerneck -11.512 -1.95127 -1.86378
upperneck 29.2302 -3.3771 3.27398
head 11.49 -1.34223 1.08281
rclavicle -2.09097e-014 -3.97569e-016
rhumerus -49.7454 -8.83264 -83.2044
rradius 43.0197
rwrist 21.7347
rhand -6.56856 -36.8752
rfingers 7.12502
rthumb 19.2857 -65.9389
lclavicle -2.09097e-014 -3.97569e-016
lhumerus -43.1748 -1.30673 90.732
lradius 37.258
lwrist -5.01256
lhand -11.023 -28.8066
lfingers 7.12502
lthumb 14.9983 0.630248
rfemur 0 0 0
rtibia 0
rfoot 0 0
rtoes 0
lfemur -2.7004 -6.81594 -12.418
ltibia 21.6909
lfoot -25.3389 17.5279
ltoes -54.1606
8
root -0.585457 18.6685 5.66948 1.0902 -4.53297 -2.76024
lowerback 1.1235 1.14715 1.40678
upperback -2.24975 1.57803 0.414354
thorax -2.91255 0.760277 -0.419488
lowerneck -11.5394 -1.97079 -1.90167
upperneck 29.2342 -3.39799 3.28018
head 11.4987 -1.35476 1.08865
rclavicle 9.56651e-015 1.03368e-014
rhumerus -49.7265 -8.8474 -83.1657
rradius 42.9816
rwrist 21.7666
rhand -6.52711 -36.7913
rfingers 7.12502
rthumb 19.3256 -65.851
lclavicle 9.56651e-015 1.03368e-014
lhumerus -43.1862 -1.3406 90.7649
lradius 37.3082
lwrist -4.94776
lhand -10.9919 -28.8041
lfingers 7.12502
lthumb 15.0283 0.630538
rfemur 0 0 0
rtibia 0
rfoot 0 0
rtoes 0
lfemur -2.68711 -6.82784 -12.3873
ltibia 21.6907
lfoot -25.3501 17.5328
ltoes -54.1096
9
root -0.585952 18.6684 5.66965 1.0934 -4.5357 -2.77841
lowerback 1.10755 1.14148 1.40929
upperback -2.24825 1.57038 0.421241
thorax -2.90227 0.756569 -0.413173
lowerneck -11.5271 -1.95528 -1.95338
upperneck 29.2314 -3.38276 3.3457
head 11.4969 -1.34571 1.12393
rclavicle -3.72721e-017 -1.47101e-014
rhumerus -49.7386 -8.85554 -83.1462
rradius 42.9589
rwrist 21.8248
rhand -6.46585 -36.6914
rfingers 7.12502
rthumb 19.3845 -65.7452
lclavicle -3.72721e-017 -1.47101e-014
lhumerus -43.1869 -1.31239 90.7515
lradius 37.3171
lwrist -4.94572
lhand -10.9324 -28.8576
lfingers 7.12502
lthumb 15.0856 0.572725
rfemur 0 0 0
rtibia 0
rfoot 0 0
rtoes 0
lfemur -2.68749 -6.83346 -12.3658
ltibia 21.6918
lfoot -25.3465 17.5268
ltoes -54.0901
10
root -0.586465 18.6685 5.66958 1.10605 -4.5514 -2.75576
lowerback 1.08126 1.14514 1.37736
upperback -2.24737 1.57361 0.408587
thorax -2.88695 0.758863 -0.407808
lowerneck -11.5465 -1.94318 -1.9906
upperneck 29.2556 -3.37702 3.41243
head 11.5121 -1.33858 1.15582
rclavicle 3.86388e-015 8.15017e-015
rhumerus -49.7541 -8.83865 -83.1734
rradius 42.9845
rwrist 21.9064
rhand -6.88593 -36.4034
rfingers 7.12502
rthumb 18.9805 -65.4973
lclavicle 3.86388e-015 8.15017e-015
lhumerus -43.1637 -1.28141 90.7218
lradius 37.2976
lwrist -5.04349
lhand -10.9647 -28.8519
lfingers 7.12502
lthumb 15.0545 0.580761
rfemur 0 0 0
rtibia 0
rfoot 0 0
rtoes 0
lfemur -2.69915 -6.83412 -12.3883
ltibia 21.6888
lfoot -25.3522 17.5202
ltoes -54.063
11
root -0.58622 18.6689 5.66978 1.11728 -4.56826 -2.72161
lowerback 1.05504 1.15259 1.34292
upperback -2.23977 1.58186 0.399117
thorax -2.86481 0.763833 -0.397857
lowerneck -11.6155 -1.95658 -1.99662
upperneck 29.3092 -3.39403 3.40463
head 11.5476 -1.34662 1.15154
rclavicle 1.1045e-014 -4.96962e-015
rhumerus -49.7531 -8.80474 -83.1997
rradius 43.0539
rwrist 21.9673
rhand -7.76152 -35.8526
rfingers 7.12502
rthumb 18.1383 -65.0269
lclavicle 1.1045e-014 -4.96962e-015
lhumerus -43.132 -1.28002 90.7261
lradius 37.2851
lwrist -5.09583
lhand -11.0198 -28.7934
lfingers 7.12502
lthumb 15.0014 0.643238
rfemur 0 0 0
rtibia 0
rfoot 0 0
rtoes 0
lfemur -2.7028 -6.85549 -12.4302
ltibia 21.6844
lfoot -25.4095 17.5107
ltoes -53.9736
12
root -0.585593 18.669 5.66979 1.11074 -4.56441 -2.72584
lowerback 1.05909 1.14769 1.33784
upperback -2.23733 1.57554 0.410875
thorax -2.86515 0.76094 -0.382797
lowerneck -11.6302 -1.95735 -1.9599
upperneck 29.3359 -3.38528 3.33903
head 11.5587 -1.3463 1.12214
rclavicle 1.10574e-015 8.34896e-015
rhumerus -49.7533 -8.78503 -83.1883
rradius 43.0821
rwrist 21.9804
rhand -8.1964 -35.5602
rfingers 7.12502
rthumb 17.7199 -64.7728
lclavicle 1.10574e-015 8.34896e-015
lhumerus -43.1271 -1.27375 90.7482
lradius 37.2716
lwrist -5.05102
lhand -11.065 -28.814
lfingers 7.12502
lthumb 14.9578 0.625842
rfemur 0 0 0
rtibia 0
rfoot 0 0
rtoes 0
lfemur -2.68906 -6.86496 -12.4292
ltibia 21.6789
lfoot -25.4405 17.5069
ltoes -53.9343
13
root -0.585617 18.669 5.66887 1.09783 -4.55808 -2.7396
lowerback 1.09688 1.13995 1.34317
upperback -2.24839 1.5663 0.415618
thorax -2.898 0.75599 -0.381591
lowerneck -11.5986 -1.94693 -1.9377
upperneck 29.3382 -3.36891 3.3152
head 11.5517 -1.33978 1.11194
rclavicle 3.2141e-014 1.19271e-015
rhumerus -49.768 -8.80279 -83.1665
rradius 43.0214
rwrist 21.9298
rhand -7.73678 -35.8653
rfingers 7.12502
rthumb 18.1621 -65.0374
lclavicle 3.2141e-014 1.19271e-015
lhumerus -43.1583 -1.2989 90.769
lradius 37.2859
lwrist -4.96791
lhand -11.0929 -28.7871
lfingers 7.12502
lthumb 14.931 0.654713
rfemur 0 0 0
rtibia 0
rfoot 0 0
rtoes 0
lfemur -2.68242 -6.82715 -12.41
ltibia 21.6768
lfoot -25.3816 17.5314
ltoes -54.0639
14
root -0.585821 18.6692 5.66819 1.09399 -4.55944 -2.73547
lowerback 1.12091 1.14 1.35213
upperback -2.25492 1.56688 0.406456
thorax -2.91779 0.755798 -0.396647
lowerneck -11.6055 -1.94086 -2.01261
upperneck 29.3525 -3.36289 3.38364
head 11.5613 -1.33671 1.15111
rclavicle 7.33018e-016 4.96962e-015
rhumerus -49.7932 -8.82836 -83.1548
rradius 42.9659
rwrist 21.8078
rhand -6.67458 -36.6594
rfingers 7.12502
rthumb 19.1838 -65.7332
lclavicle 7.33018e-016 4.96962e-015
lhumerus -43.1809 -1.3354 90.7876
lradius 37.3215
lwrist -4.90704
lhand -11.0573 -28.7174
lfingers 7.12502
lthumb 14.9652 0.721847
rfemur 0 0 0
rtibia 0
rfoot 0 0
rtoes 0
lfemur -2.68326 -6.82826 -12.4137
ltibia 21.6787
lfoot -25.365 17.5431
ltoes -54.1057
15
root -0.585996 18.6692 5.66785 1.09609 -4.56595 -2.72544
lowerback 1.12377 1.13695 1.34933
upperback -2.25254 1.5627 0.403857
thorax -2.91701 0.753759 -0.397631
lowerneck -11.6009 -1.93423 -2.06869
upperneck 29.3388 -3.34617 3.40726
head 11.5559 -1.33262 1.17174
rclavicle 2.69602e-014 -3.57812e-015
rhumerus -49.8103 -8.82494 -83.148
rradius 42.969
rwrist 21.7613
rhand -5.94805 -37.1678
rfingers 7.12502
rthumb 19.8823 -66.1708
lclavicle 2.69602e-014 -3.57812e-015
lhumerus -43.1815 -1.30801 90.7798
lradius 37.3436
lwrist -4.93114
lhand -10.9723 -28.7078
lfingers 7.12502
lthumb 15.0472 0.725367
rfemur 0 0 0
rtibia 0
rfoot 0 0
rtoes 0
lfemur -2.6799 -6.874 -12.4272
ltibia 21.6754
lfoot -25.4219 17.5275
ltoes -53.9838
16
root -0.586352 18.6691 5.66704 1.09263 -4.57672 -2.71905
lowerback 1.12046 1.12995 1.3365
upperback -2.23913 1.55273 0.401347
thorax -2.90173 0.749204 -0.392435
lowerneck -11.596 -1.93075 -2.03623
upperneck 29.3218 -3.33324 3.35654
head 11.5461 -1.32971 1.14895
rclavicle 1.9133e-014 -2.18663e-015
rhumerus -49.7911 -8.83113 -83.1505
rradius 42.9676
rwrist 21.7995
rhand -5.65135 -37.2565
rfingers 7.12502
rthumb 20.1675 -66.2296
lclavicle 1.9133e-014 -2.18663e-015
lhumerus -43.1569 -1.30176 90.7693
lradius 37.3416
lwrist -4.92927
lhand -10.9029 -28.6879
lfingers 7.12502
lthumb 15.114 0.74027
rfemur 0 0 0
rtibia 0
rfoot 0 0
rtoes 0
lfemur -2.67305 -6.88739 -12.436
ltibia 21.6678
lfoot -25.432 17.5381
ltoes -53.957
